<?xml version="1.0" standalone="no"?>
<!DOCTYPE svg PUBLIC "-//W3C//DTD SVG 20010904//EN"
 "http://www.w3.org/TR/2001/REC-SVG-20010904/DTD/svg10.dtd">
<svg version="1.0" xmlns="http://www.w3.org/2000/svg"
 width="879.000000pt" height="879.000000pt" viewBox="0 0 879.000000 879.000000"
 preserveAspectRatio="xMidYMid meet">
<metadata>
Created by potrace 1.11, written by Peter Selinger 2001-2013
</metadata>
<g transform="translate(0.000000,879.000000) scale(0.100000,-0.100000)"
fill="#000000" stroke="none">
<path d="M2635 8378 c-48 -17 -94 -56 -115 -99 -17 -32 -27 -110 -60 -462 -22
-232 -62 -660 -90 -951 -27 -291 -53 -533 -57 -537 -5 -4 -408 -139 -898 -299
-490 -161 -901 -298 -915 -305 -62 -32 -110 -112 -110 -184 0 -84 18 -104 737
-796 l682 -656 -28 -77 c-16 -42 -165 -444 -331 -892 -167 -448 -305 -834
-308 -857 -3 -33 2 -55 23 -98 33 -69 84 -106 155 -113 32 -3 388 40 985 119
514 67 936 121 938 118 2 -2 226 -372 497 -822 336 -558 502 -825 524 -842 41
-31 112 -50 157 -41 20 3 55 19 80 35 40 26 85 96 539 850 299 495 501 821
510 821 8 0 425 -54 927 -120 501 -66 934 -120 961 -120 69 0 129 34 167 95
56 90 65 57 -298 1035 -179 481 -328 882 -332 891 -5 13 168 185 684 683 380
367 697 680 706 695 41 80 26 173 -39 237 -38 38 -58 47 -256 112 -1176 386
-1596 525 -1604 532 -5 5 -49 435 -98 957 -99 1061 -91 1010 -176 1064 -24 15
-58 31 -74 34 -80 18 -77 20 -918 -531 -441 -288 -806 -524 -811 -524 -5 0
-366 233 -801 518 -436 285 -808 524 -827 530 -41 14 -85 14 -126 0z"/>
</g>
</svg>
